<svg xmlns="http://www.w3.org/2000/svg" viewBox="0 0 512 512">
  <rect width="512" height="512" rx="112" fill="#221c22"/>
  <g fill="#3a323a">
    <rect x="88" y="88" width="100" height="100" rx="22"/>
    <rect x="206" y="88" width="100" height="100" rx="22"/>
    <rect x="324" y="88" width="100" height="100" rx="22"/>
    <rect x="88" y="206" width="100" height="100" rx="22"/>
    <rect x="324" y="206" width="100" height="100" rx="22"/>
    <rect x="88" y="324" width="100" height="100" rx="22"/>
    <rect x="206" y="324" width="100" height="100" rx="22"/>
    <rect x="324" y="324" width="100" height="100" rx="22"/>
  </g>
  <rect x="206" y="206" width="100" height="100" rx="22" fill="#f26bb8"/>
  <path d="M278 116 216 268h44l-26 128 96-172h-52l40-108z" fill="#fff" opacity="0.92" transform="translate(96 44) scale(0.62)"/>
</svg>
